Coordinates
version=1
nRows=11
nColumns=36
inDegrees=yes

Units are S.I. units (second, meters, Newtons, ...)
If the header above contains a line with 'inDegrees', this indicates whether rotational values are in degrees (yes) or radians (no).

endheader
time	pelvis_tilt	pelvis_list	pelvis_rotation	pelvis_tx	pelvis_ty	pelvis_tz	hip_flexion_r	hip_adduction_r	hip_rotation_r	knee_angle_r	knee_angle_r_beta	ankle_angle_r	subtalar_angle_r	mtp_angle_r	hip_flexion_l	hip_adduction_l	hip_rotation_l	knee_angle_l	knee_angle_l_beta	ankle_angle_l	subtalar_angle_l	mtp_angle_l	lumbar_extension	lumbar_bending	lumbar_rotation	arm_flex_r	arm_add_r	arm_rot_r	elbow_flex_r	pro_sup_r	arm_flex_l	arm_add_l	arm_rot_l	elbow_flex_l	pro_sup_l
      1.38000000	     -1.60411743	     -1.86940259	     -7.54744268	      1.12467699	      1.15807111	     -0.20983254	     21.66396269	      5.57429396	      5.14344696	     15.81768691	      0.27607072	     -1.36629150	    -10.73081765	     -7.01222286	     -7.56893146	      1.31984231	     -6.61647028	      3.59765136	      0.06279086	      7.74041654	     -0.79402865	     -7.01222286	    -14.80467737	    -17.09879491	     -8.00002651	    -25.06087594	     -9.19900922	     -2.85842586	     46.99847407	    110.24122190	     -1.16517193	    -15.60261587	    -14.73190098	     52.91004810	    108.56072925
      1.39000000	     -1.63577635	     -1.70061257	     -7.40227469	      1.13329377	      1.15692732	     -0.21037549	     21.79464407	      5.39667763	      4.15888357	     14.12366506	      0.24650446	     -0.45139507	     -8.42517852	     -7.02847267	     -8.00165264	      1.57719746	     -6.46532514	      3.53798155	      0.06174943	      7.90021933	     -0.76974407	     -7.02847267	    -14.83130077	    -16.86622958	     -7.94788920	    -24.85300632	     -9.13884751	     -3.00203411	     47.03377758	    110.22388829	     -1.17394144	    -15.44791162	    -14.29189761	     52.78882626	    108.58739646
      1.40000000	     -1.90207250	     -1.44581952	     -7.33652317	      1.14184757	      1.15543016	     -0.21061945	     22.13272719	      5.29674338	      3.75967939	     12.41024999	      0.21659972	     -0.41098191	     -7.72555661	     -7.03070594	     -8.13016747	      1.87950823	     -6.45637184	      3.55385672	      0.06202650	      7.98707465	     -0.78889350	     -7.03070594	    -14.56487125	    -16.74790564	     -7.88231318	    -24.66911813	     -9.06781975	     -3.03421779	     47.09453416	    110.22324834	     -1.31094160	    -15.24460284	    -14.13272975	     52.78260873	    108.60212679
      1.41000000	     -1.91969782	     -1.34367633	     -7.14482107	      1.15067201	      1.15426816	     -0.21124149	     22.21758394	      5.15906080	      2.49723122	     10.85996799	      0.18954220	      0.56518586	     -4.58074868	     -7.05043655	     -8.56744692	      2.05274078	     -6.25304867	      3.56197355	      0.06216817	      8.18917543	     -0.70253474	     -7.05043655	    -14.63158168	    -16.37349390	     -7.87167996	    -24.40487644	     -9.04917304	     -3.20829823	     47.10334484	    110.20622931	     -1.35465942	    -15.10529831	    -13.61290738	     52.55354454	    108.61934767
      1.42000000	     -2.05370192	     -1.18755782	     -6.99748441	      1.15951400	      1.15291533	     -0.21165989	     22.40012017	      5.07018827	      1.62779652	      9.35274284	      0.16323616	      0.94503087	     -2.70253607	     -7.06899466	     -8.84978478	      2.25434688	     -6.13052573	      3.61769161	      0.06314063	      8.33215973	     -0.64306756	     -7.06899466	    -14.54730220	    -16.08284608	     -7.81892310	    -24.17573564	     -9.01128937	     -3.30755778	     47.12360999	    110.20221639	     -1.45646463	    -14.92119125	    -13.26272782	     52.40016534	    108.62202746
      1.43000000	     -2.28944492	     -1.02288580	     -6.86960855	      1.16837898	      1.15141541	     -0.21194950	     22.61824556	      5.05180652	      1.29029733	      7.82454044	      0.13656399	      0.84576734	     -1.83502841	     -7.07196206	     -8.99236914	      2.44051716	     -6.02095794	      3.73896655	      0.06525728	      8.40965252	     -0.62646812	     -7.07196206	    -14.34532560	    -15.79944360	     -7.77178293	    -23.93732034	     -8.97877388	     -3.34697562	     47.14558340	    110.20034624	     -1.63477129	    -14.70644674	    -13.06986739	     52.31764134	    108.63161166
      1.44000000	     -2.28235831	     -0.92059209	     -6.66973739	      1.17750219	      1.15020460	     -0.21245960	     22.68466965	      4.94512035	     -0.03414480	      6.64776915	      0.11602546	      1.48578121	      0.71682675	     -7.08882081	     -9.42927483	      2.58763767	     -5.89290544	      3.82372606	      0.06673661	      8.61941654	     -0.48568723	     -7.08882081	    -14.44165033	    -15.40861397	     -7.70637461	    -23.70759674	     -8.97047342	     -3.45495394	     47.17037406	    110.21013732	     -1.68828106	    -14.52908382	    -12.54181388	     52.02875991	    108.63933637
      1.45000000	     -2.50286618	     -0.72254235	     -6.54576087	      1.18657292	      1.14865386	     -0.21271460	     22.91327242	      4.89163026	     -0.32060719	      5.44912944	      0.09510525	      1.47662327	      1.25428833	     -7.09077169	     -9.55993220	      2.80420162	     -5.80948125	      4.00910980	      0.06997217	      8.66079305	     -0.50544420	     -7.09077169	    -14.23042375	    -15.15707381	     -7.59489803	    -23.50569326	     -8.93347098	     -3.48895333	     47.21326000	    110.21345349	     -1.88948699	    -14.29872239	    -12.39777410	     51.95094233	    108.64556508
      1.46000000	     -2.62992882	     -0.63961912	     -6.36256581	      1.19569861	      1.14727858	     -0.21310295	     22.99552185	      4.88986103	     -0.66837307	      4.34070790	      0.07575964	      1.36106878	      2.45994155	     -7.09489267	     -9.75211322	      2.89568611	     -5.57072343	      4.32579303	      0.07549933	      8.80013928	     -0.54982326	     -7.09489267	    -14.20233501	    -14.71580052	     -7.60679807	    -23.20188551	     -8.94335895	     -3.58836399	     47.18729272	    110.22129646	     -2.09457241	    -14.08511705	    -12.09990716	     51.70221312	    108.65386510
      1.47000000	     -2.76860371	     -0.44274506	     -6.20458101	      1.20498902	      1.14581637	     -0.21338837	     23.15436394	      4.79071874	     -1.03853776	      3.51607684	      0.06136712	      1.50681161	      3.02131427	     -7.09697697	     -9.93789440	      3.11033190	     -5.45408204	      4.58994360	      0.08010963	      8.81940979	     -0.57978192	     -7.09697697	    -14.11706426	    -14.43006933	     -7.48599806	    -23.01496919	     -8.91323644	     -3.61049622	     47.21149508	    110.23652927	     -2.26228489	    -13.84112576	    -11.89969453	     51.57891236	    108.66481151
      1.48000000	     -2.86310753	     -0.29445168	     -6.01772249	      1.21431057	      1.14444081	     -0.21381154	     23.25875745	      4.69282142	     -1.31351709	      2.88947525	      0.05043086	      1.63724512	      3.87651838	     -7.09979882	    -10.11010898	      3.27244044	     -5.22691495	      5.01607509	      0.08754703	      8.86269393	     -0.66648656	     -7.09979882	    -14.10686994	    -14.03083236	     -7.45272383	    -22.75112473	     -8.93757092	     -3.68485730	     47.20818593	    110.26170714	     -2.42745097	    -13.62691385	    -11.61996084	     51.34419547	    108.67679989
